v -85.486172 1.108397 52.484737
v -28.354545 1.108397 52.484737
v -85.486172 43.957115 38.201832
v -28.354545 43.957115 38.201832
v -85.486172 1.108397 38.201832
v -28.354545 1.108397 38.201832
v -67.006085 1.111933 43.309666
v -60.617459 1.111933 43.309666
v -67.006085 5.136496 43.309666
v -60.617459 5.136496 43.309666
v -67.006085 5.136496 38.205318
v -60.617459 5.136496 38.205318
v -67.006085 1.111933 38.205318
v -60.617459 1.111933 38.205318
v -59.304780 1.118655 41.780605
v -52.916154 1.118655 41.780605
v -59.304780 17.635778 41.780605
v -52.916154 17.635778 41.780605
v -59.304780 17.635778 38.197308
v -52.916154 17.635778 38.197308
v -59.304780 1.118655 38.197308
v -52.916154 1.118655 38.197308
v -78.988785 1.118655 40.083900
v -72.600161 1.118655 40.083900
v -78.988785 9.566115 40.083900
v -72.600161 9.566115 40.083900
v -78.988785 9.566115 38.197308
v -72.600161 9.566115 38.197308
v -78.988785 1.118655 38.197308
v -72.600161 1.118655 38.197308
v -50.874608 1.118655 39.958130
v -39.243408 1.118655 39.958130
v -50.874608 9.566115 39.958130
v -39.243408 9.566115 39.958130
v -50.874608 9.566115 38.197308
v -39.243408 9.566115 38.197308
v -50.874608 1.118655 38.197308
v -39.243408 1.118655 38.197308
v -38.107669 1.111933 41.769150
v -35.297741 1.111933 41.769150
v -38.107669 5.136496 41.769150
v -35.297741 5.136496 41.769150
v -38.107669 5.136496 38.205318
v -35.297741 5.136496 38.205318
v -38.107669 1.111933 38.205318
v -35.297741 1.111933 38.205318
vt 0.375000 0.500000
vt 0.625000 0.500000
vt 0.375000 0.750000
vt 0.625000 0.750000
vt 0.375000 1.000000
vt 0.625000 1.000000
vt 0.375000 0.000000
vt 0.625000 0.000000
vt 0.375000 0.250000
vt 0.625000 0.250000
vt 0.375000 0.500000
vt 0.625000 0.500000
vt 0.875000 0.000000
vt 0.875000 0.250000
vt 0.125000 0.000000
vt 0.125000 0.250000
vt 0.375000 0.000000
vt 0.625000 0.000000
vt 0.375000 0.250000
vt 0.625000 0.250000
vt 0.375000 0.500000
vt 0.625000 0.500000
vt 0.875000 0.000000
vt 0.875000 0.250000
vt 0.125000 0.000000
vt 0.125000 0.250000
vt 0.375000 0.000000
vt 0.625000 0.000000
vt 0.375000 0.250000
vt 0.625000 0.250000
vt 0.375000 0.500000
vt 0.625000 0.500000
vt 0.875000 0.000000
vt 0.875000 0.250000
vt 0.125000 0.000000
vt 0.125000 0.250000
vt 0.375000 0.000000
vt 0.625000 0.000000
vt 0.375000 0.250000
vt 0.625000 0.250000
vt 0.375000 0.500000
vt 0.625000 0.500000
vt 0.875000 0.000000
vt 0.875000 0.250000
vt 0.125000 0.000000
vt 0.125000 0.250000
vt 0.375000 0.000000
vt 0.625000 0.000000
vt 0.375000 0.250000
vt 0.625000 0.250000
vt 0.375000 0.500000
vt 0.625000 0.500000
vt 0.875000 0.000000
vt 0.875000 0.250000
vt 0.125000 0.000000
vt 0.125000 0.250000
vn 0.000000 0.000000 -1.000000
vn 0.000000 0.000000 -1.000000
vn 0.000000 0.000000 -1.000000
vn 0.000000 0.000000 -1.000000
vn 0.000000 0.000000 -1.000000
vn 0.000000 0.000000 -1.000000
vn 0.000000 -1.000000 0.000000
vn 0.000000 -1.000000 0.000000
vn 0.000000 -1.000000 0.000000
vn 0.000000 -1.000000 0.000000
vn 0.000000 -1.000000 0.000000
vn 0.000000 -1.000000 0.000000
vn 0.000000 0.000000 1.000000
vn 0.000000 0.000000 1.000000
vn 0.000000 0.000000 1.000000
vn 0.000000 0.000000 1.000000
vn 0.000000 0.000000 1.000000
vn 0.000000 0.000000 1.000000
vn 0.000000 1.000000 0.000000
vn 0.000000 1.000000 0.000000
vn 0.000000 1.000000 0.000000
vn 0.000000 1.000000 0.000000
vn 0.000000 1.000000 0.000000
vn 0.000000 1.000000 0.000000
vn 1.000000 0.000000 0.000000
vn 1.000000 0.000000 0.000000
vn 1.000000 0.000000 0.000000
vn 1.000000 0.000000 0.000000
vn 1.000000 0.000000 0.000000
vn 1.000000 0.000000 0.000000
vn -1.000000 0.000000 0.000000
vn -1.000000 0.000000 0.000000
vn -1.000000 0.000000 0.000000
vn -1.000000 0.000000 0.000000
vn -1.000000 0.000000 0.000000
vn -1.000000 0.000000 0.000000
vn 0.000000 0.000000 1.000000
vn 0.000000 0.000000 1.000000
vn 0.000000 0.000000 1.000000
vn 0.000000 0.000000 1.000000
vn 0.000000 0.000000 1.000000
vn 0.000000 0.000000 1.000000
vn 0.000000 1.000000 0.000000
vn 0.000000 1.000000 0.000000
vn 0.000000 1.000000 0.000000
vn 0.000000 1.000000 0.000000
vn 0.000000 1.000000 0.000000
vn 0.000000 1.000000 0.000000
vn 1.000000 0.000000 0.000000
vn 1.000000 0.000000 0.000000
vn 1.000000 0.000000 0.000000
vn 1.000000 0.000000 0.000000
vn 1.000000 0.000000 0.000000
vn 1.000000 0.000000 0.000000
vn -1.000000 0.000000 0.000000
vn -1.000000 0.000000 0.000000
vn -1.000000 0.000000 0.000000
vn -1.000000 0.000000 0.000000
vn -1.000000 0.000000 0.000000
vn -1.000000 0.000000 0.000000
vn 0.000000 0.000000 1.000000
vn 0.000000 0.000000 1.000000
vn 0.000000 0.000000 1.000000
vn 0.000000 0.000000 1.000000
vn 0.000000 0.000000 1.000000
vn 0.000000 0.000000 1.000000
vn 0.000000 1.000000 0.000000
vn 0.000000 1.000000 0.000000
vn 0.000000 1.000000 0.000000
vn 0.000000 1.000000 0.000000
vn 0.000000 1.000000 0.000000
vn 0.000000 1.000000 0.000000
vn 1.000000 0.000000 0.000000
vn 1.000000 0.000000 0.000000
vn 1.000000 0.000000 0.000000
vn 1.000000 0.000000 0.000000
vn 1.000000 0.000000 0.000000
vn 1.000000 0.000000 0.000000
vn -1.000000 0.000000 0.000000
vn -1.000000 0.000000 0.000000
vn -1.000000 0.000000 0.000000
vn -1.000000 0.000000 0.000000
vn -1.000000 0.000000 0.000000
vn -1.000000 0.000000 0.000000
vn 0.000000 0.000000 1.000000
vn 0.000000 0.000000 1.000000
vn 0.000000 0.000000 1.000000
vn 0.000000 0.000000 1.000000
vn 0.000000 0.000000 1.000000
vn 0.000000 0.000000 1.000000
vn 0.000000 1.000000 0.000000
vn 0.000000 1.000000 0.000000
vn 0.000000 1.000000 0.000000
vn 0.000000 1.000000 0.000000
vn 0.000000 1.000000 0.000000
vn 0.000000 1.000000 0.000000
vn 1.000000 0.000000 0.000000
vn 1.000000 0.000000 0.000000
vn 1.000000 0.000000 0.000000
vn 1.000000 0.000000 0.000000
vn 1.000000 0.000000 0.000000
vn 1.000000 0.000000 0.000000
vn -1.000000 0.000000 0.000000
vn -1.000000 0.000000 0.000000
vn -1.000000 0.000000 0.000000
vn -1.000000 0.000000 0.000000
vn -1.000000 0.000000 0.000000
vn -1.000000 0.000000 0.000000
vn 0.000000 0.000000 1.000000
vn 0.000000 0.000000 1.000000
vn 0.000000 0.000000 1.000000
vn 0.000000 0.000000 1.000000
vn 0.000000 0.000000 1.000000
vn 0.000000 0.000000 1.000000
vn 0.000000 1.000000 0.000000
vn 0.000000 1.000000 0.000000
vn 0.000000 1.000000 0.000000
vn 0.000000 1.000000 0.000000
vn 0.000000 1.000000 0.000000
vn 0.000000 1.000000 0.000000
vn 1.000000 0.000000 0.000000
vn 1.000000 0.000000 0.000000
vn 1.000000 0.000000 0.000000
vn 1.000000 0.000000 0.000000
vn 1.000000 0.000000 0.000000
vn 1.000000 0.000000 0.000000
vn -1.000000 0.000000 0.000000
vn -1.000000 0.000000 0.000000
vn -1.000000 0.000000 0.000000
vn -1.000000 0.000000 0.000000
vn -1.000000 0.000000 0.000000
vn -1.000000 0.000000 0.000000

f 3/1/1 4/2/2 5/3/3
f 5/3/4 4/2/5 6/4/6
f 5/3/7 6/4/8 1/5/9
f 1/5/10 6/4/11 2/6/12
f 7/7/13 8/8/14 9/9/15
f 9/9/16 8/8/17 10/10/18
f 9/9/19 10/10/20 11/11/21
f 11/11/22 10/10/23 12/12/24
f 8/8/25 14/13/26 10/10/27
f 10/10/28 14/13/29 12/14/30
f 13/15/31 7/7/32 11/16/33
f 11/16/34 7/7/35 9/9/36
f 15/17/37 16/18/38 17/19/39
f 17/19/40 16/18/41 18/20/42
f 17/19/43 18/20/44 19/21/45
f 19/21/46 18/20/47 20/22/48
f 16/18/49 22/23/50 18/20/51
f 18/20/52 22/23/53 20/24/54
f 21/25/55 15/17/56 19/26/57
f 19/26/58 15/17/59 17/19/60
f 23/27/61 24/28/62 25/29/63
f 25/29/64 24/28/65 26/30/66
f 25/29/67 26/30/68 27/31/69
f 27/31/70 26/30/71 28/32/72
f 24/28/73 30/33/74 26/30/75
f 26/30/76 30/33/77 28/34/78
f 29/35/79 23/27/80 27/36/81
f 27/36/82 23/27/83 25/29/84
f 31/37/85 32/38/86 33/39/87
f 33/39/88 32/38/89 34/40/90
f 33/39/91 34/40/92 35/41/93
f 35/41/94 34/40/95 36/42/96
f 32/38/97 38/43/98 34/40/99
f 34/40/100 38/43/101 36/44/102
f 37/45/103 31/37/104 35/46/105
f 35/46/106 31/37/107 33/39/108
f 39/47/109 40/48/110 41/49/111
f 41/49/112 40/48/113 42/50/114
f 41/49/115 42/50/116 43/51/117
f 43/51/118 42/50/119 44/52/120
f 40/48/121 46/53/122 42/50/123
f 42/50/124 46/53/125 44/54/126
f 45/55/127 39/47/128 43/56/129
f 43/56/130 39/47/131 41/49/132
